<svg xmlns="http://www.w3.org/2000/svg" xmlns:xlink="http://www.w3.org/1999/xlink" width="80" zoomAndPan="magnify" viewBox="0 0 60 60" height="80" preserveAspectRatio="xMidYMid meet" version="1.0"><defs><g/></defs><g fill="#47ccb1" fill-opacity="1"><g transform="translate(6, 44.25)"><g><path d="M 7.921875 -16.6875 C 10.265625 -16.6875 11.359375 -17.773438 11.203125 -19.953125 L 10.796875 -26.234375 C 10.742188 -27.328125 10.878906 -28.300781 11.203125 -29.15625 C 11.523438 -30.007812 12.007812 -30.734375 12.65625 -31.328125 C 13.3125 -31.929688 14.097656 -32.394531 15.015625 -32.71875 C 15.941406 -33.039062 16.976562 -33.203125 18.125 -33.203125 L 20.84375 -33.203125 L 20.84375 -28.59375 L 18.796875 -28.59375 C 17.835938 -28.59375 17.09375 -28.363281 16.5625 -27.90625 C 16.03125 -27.457031 15.789062 -26.742188 15.84375 -25.765625 L 16.234375 -19.484375 C 16.316406 -17.984375 15.882812 -16.789062 14.9375 -15.90625 C 13.988281 -15.03125 12.726562 -14.566406 11.15625 -14.515625 L 11.15625 -14.3125 C 12.757812 -14.257812 14.023438 -13.773438 14.953125 -12.859375 C 15.890625 -11.941406 16.316406 -10.734375 16.234375 -9.234375 L 15.84375 -3 C 15.789062 -2.125 16.035156 -1.4375 16.578125 -0.9375 C 17.128906 -0.445312 17.867188 -0.203125 18.796875 -0.203125 L 20.84375 -0.203125 L 20.84375 4.4375 L 18.125 4.4375 C 17 4.4375 15.96875 4.269531 15.03125 3.9375 C 14.101562 3.601562 13.3125 3.128906 12.65625 2.515625 C 12.007812 1.898438 11.519531 1.148438 11.1875 0.265625 C 10.851562 -0.609375 10.722656 -1.59375 10.796875 -2.6875 L 11.203125 -8.765625 C 11.273438 -9.859375 11.050781 -10.679688 10.53125 -11.234375 C 10.019531 -11.796875 9.148438 -12.078125 7.921875 -12.078125 L 3.15625 -12.078125 L 3.15625 -16.6875 Z M 7.921875 -16.6875 "/></g></g></g><g fill="#47ccb1" fill-opacity="1"><g transform="translate(29.997618, 44.25)"><g><path d="M 3.28125 4.4375 L 3.28125 -0.203125 L 5.3125 -0.203125 C 6.28125 -0.203125 7.035156 -0.425781 7.578125 -0.875 C 8.128906 -1.332031 8.375 -2.039062 8.3125 -3 L 7.921875 -9.28125 C 7.816406 -10.769531 8.234375 -11.953125 9.171875 -12.828125 C 10.117188 -13.710938 11.378906 -14.179688 12.953125 -14.234375 L 12.953125 -14.4375 C 11.359375 -14.488281 10.09375 -14.972656 9.15625 -15.890625 C 8.226562 -16.816406 7.816406 -18.023438 7.921875 -19.515625 L 8.3125 -25.765625 C 8.375 -26.671875 8.125 -27.367188 7.5625 -27.859375 C 7 -28.347656 6.25 -28.59375 5.3125 -28.59375 L 3.28125 -28.59375 L 3.28125 -33.203125 L 6.046875 -33.203125 C 7.160156 -33.203125 8.175781 -33.035156 9.09375 -32.703125 C 10.019531 -32.367188 10.804688 -31.894531 11.453125 -31.28125 C 12.109375 -30.664062 12.601562 -29.925781 12.9375 -29.0625 C 13.269531 -28.195312 13.394531 -27.21875 13.3125 -26.125 L 12.921875 -20 C 12.835938 -18.90625 13.054688 -18.082031 13.578125 -17.53125 C 14.097656 -16.988281 14.972656 -16.71875 16.203125 -16.71875 L 20.953125 -16.71875 L 20.953125 -12.125 L 16.203125 -12.125 C 13.859375 -12.125 12.765625 -11.015625 12.921875 -8.796875 L 13.3125 -2.5625 C 13.375 -1.488281 13.242188 -0.519531 12.921875 0.34375 C 12.597656 1.207031 12.113281 1.945312 11.46875 2.5625 C 10.832031 3.175781 10.046875 3.640625 9.109375 3.953125 C 8.179688 4.273438 7.160156 4.4375 6.046875 4.4375 Z M 3.28125 4.4375 "/></g></g></g></svg>